<?xml version="1.0" encoding="UTF-8" standalone="no"?>
<!-- Created with Inkscape (http://www.inkscape.org/) -->

<svg
   xmlns:dc="http://purl.org/dc/elements/1.1/"
   xmlns:cc="http://creativecommons.org/ns#"
   xmlns:rdf="http://www.w3.org/1999/02/22-rdf-syntax-ns#"
   xmlns:svg="http://www.w3.org/2000/svg"
   xmlns="http://www.w3.org/2000/svg"
   xmlns:sodipodi="http://sodipodi.sourceforge.net/DTD/sodipodi-0.dtd"
   xmlns:inkscape="http://www.inkscape.org/namespaces/inkscape"
   width="210mm"
   height="297mm"
   viewBox="0 0 210 297"
   version="1.1"
   id="svg8"
   inkscape:version="0.92.2 2405546, 2018-03-11"
   sodipodi:docname="arch-a-blue.svg"
   inkscape:export-filename="/home/altman/Desktop/arch_reasonably_small_400x400.png"
   inkscape:export-xdpi="96"
   inkscape:export-ydpi="96">
  <defs
     id="defs2" />
  <sodipodi:namedview
     id="base"
     pagecolor="#ffffff"
     bordercolor="#666666"
     borderopacity="1.0"
     inkscape:pageopacity="0.0"
     inkscape:pageshadow="2"
     inkscape:zoom="0.35"
     inkscape:cx="160.23411"
     inkscape:cy="569.0413"
     inkscape:document-units="mm"
     inkscape:current-layer="g39"
     showgrid="false"
     inkscape:window-width="1366"
     inkscape:window-height="732"
     inkscape:window-x="0"
     inkscape:window-y="0"
     inkscape:window-maximized="1" />
  <metadata
     id="metadata5">
    <rdf:RDF>
      <cc:Work
         rdf:about="">
        <dc:format>image/svg+xml</dc:format>
        <dc:type
           rdf:resource="http://purl.org/dc/dcmitype/StillImage" />
        <dc:title></dc:title>
      </cc:Work>
    </rdf:RDF>
  </metadata>
  <g
     inkscape:label="Layer 1"
     inkscape:groupmode="layer"
     id="layer1">
    <g
       id="g39"
       transform="translate(0.678569,6.4702485)">
      <g
         id="g67">
        <path
           inkscape:connector-curvature="0"
           id="path55"
           d="m 51.404762,193.62351 c 0,-0.72761 0.08966,-1.32292 0.199252,-1.32292 0.109588,0 7.937948,-15.47943 17.396355,-34.39872 11.777817,-23.55873 17.351893,-34.44794 17.6883,-34.5549 0.318532,-0.10128 2.486705,0.83953 6.167988,2.67639 3.122237,1.55791 5.74584,2.76352 5.830229,2.67913 0.08439,-0.0844 -1.785048,-2.73699 -4.154308,-5.89466 -2.369262,-3.15768 -4.369721,-5.97822 -4.445466,-6.26787 -0.091,-0.34797 2.142472,-5.08982 6.583205,-13.97676 l 6.720923,-13.450117 h 1.06111 1.06111 l 19.95363,39.910067 c 12.93192,25.86565 19.89436,40.06451 19.78521,40.34896 -0.23772,0.61947 -1.07264,0.55436 -4.55066,-0.35486 -3.27975,-0.85738 -4.12364,-0.9751 -3.65892,-0.51037 0.15586,0.15586 2.82882,1.79297 5.9399,3.63802 l 5.65652,3.35465 4.28287,8.46666 c 3.68956,7.29378 4.28517,8.64077 4.29948,9.72344 l 0.0166,1.25677 h -18.49132 -18.49132 l -0.18348,-3.50573 c -0.28098,-5.36887 -1.36143,-12.45214 -2.4316,-15.94114 -2.26328,-7.37881 -5.18622,-11.77815 -9.01877,-13.57422 -1.33502,-0.62564 -1.84718,-0.71328 -4.16789,-0.71328 -2.32071,0 -2.83286,0.0876 -4.16788,0.71328 -3.832556,1.79607 -6.755495,6.19541 -9.018771,13.57422 -1.070168,3.489 -2.150626,10.57227 -2.431605,15.94114 l -0.183473,3.50573 H 70.028377 51.404762 Z"
           style="fill:#a0a0a0;stroke-width:0.26458335" />
        <path
           inkscape:connector-curvature="0"
           id="path53"
           d="m 51.404762,193.9164 c 0,-0.59499 0.143618,-1.08514 0.340039,-1.16051 0.187021,-0.0718 8.060213,-15.57215 17.495983,-34.4453 9.435769,-18.87315 17.337358,-34.38442 17.559089,-34.46951 0.229661,-0.0881 2.948443,1.11646 6.318042,2.79928 5.602208,2.79781 6.7056,3.2477 6.7056,2.73408 0,-0.12094 -2.083594,-2.99855 -4.630209,-6.39469 -2.707105,-3.61017 -4.630208,-6.41539 -4.630208,-6.75407 0,-0.3186 2.917031,-6.41811 6.482292,-13.55445 3.56526,-7.13635 6.48229,-13.106347 6.48229,-13.266663 0,-0.160316 0.41672,-0.291484 0.92604,-0.291484 0.50933,0 0.92605,0.132672 0.92605,0.294826 0,0.162155 8.87015,18.042211 19.71145,39.733461 10.84131,21.69126 19.71146,39.59656 19.71146,39.78956 0,0.54215 -0.85614,0.43103 -5.40887,-0.70202 -2.32003,-0.5774 -4.27176,-0.9963 -4.33718,-0.93088 -0.30359,0.30359 0.99668,1.20233 6.67684,4.61502 3.36156,2.01965 6.36529,3.95049 6.67497,4.29075 0.30967,0.34027 2.14965,3.83335 4.08884,7.76241 1.9392,3.92907 3.79919,7.58787 4.13331,8.13068 0.33413,0.54282 0.60751,1.40602 0.60751,1.91823 v 0.9313 h -18.2056 -18.20561 l -0.44128,-5.35781 c -0.49519,-6.01233 -1.12295,-9.84675 -2.29296,-14.0055 -2.77919,-9.87857 -7.45159,-15.02624 -13.63893,-15.02624 -6.187328,0 -10.859735,5.14767 -13.638927,15.02624 -1.170006,4.15875 -1.797769,7.99317 -2.292958,14.0055 l -0.44128,5.35781 H 69.742658 51.404762 Z"
           style="fill:#1db3d8;stroke-width:0.26458335" />
        <path
           inkscape:connector-curvature="0"
           id="path51"
           d="m 51.404762,193.9164 c 0,-0.59499 0.143618,-1.08514 0.340039,-1.16051 0.187021,-0.0718 8.060213,-15.57215 17.495983,-34.4453 9.435769,-18.87315 17.337358,-34.38442 17.559089,-34.46951 0.229661,-0.0881 2.948443,1.11646 6.318042,2.79928 5.602208,2.79781 6.7056,3.2477 6.7056,2.73408 0,-0.12094 -2.083594,-2.99855 -4.630209,-6.39469 -2.707105,-3.61017 -4.630208,-6.41539 -4.630208,-6.75407 0,-0.3186 2.917031,-6.41811 6.482292,-13.55445 3.56526,-7.13635 6.48229,-13.106347 6.48229,-13.266663 0,-0.160316 0.41672,-0.291484 0.92604,-0.291484 0.50933,0 0.92605,0.132672 0.92605,0.294826 0,0.162155 8.87015,18.042211 19.71145,39.733461 10.84131,21.69126 19.71146,39.59656 19.71146,39.78956 0,0.54215 -0.85614,0.43103 -5.40887,-0.70202 -2.32003,-0.5774 -4.27176,-0.9963 -4.33718,-0.93088 -0.30359,0.30359 0.99668,1.20233 6.67684,4.61502 3.36156,2.01965 6.36529,3.95049 6.67497,4.29075 0.30967,0.34027 2.14965,3.83335 4.08884,7.76241 1.9392,3.92907 3.79919,7.58787 4.13331,8.13068 0.33413,0.54282 0.60751,1.40602 0.60751,1.91823 v 0.9313 h -18.2056 -18.20561 l -0.44128,-5.35781 c -0.49519,-6.01233 -1.12295,-9.84675 -2.29296,-14.0055 -2.77919,-9.87857 -7.45159,-15.02624 -13.63893,-15.02624 -6.187328,0 -10.859735,5.14767 -13.638927,15.02624 -1.170006,4.15875 -1.797769,7.99317 -2.292958,14.0055 l -0.44128,5.35781 H 69.742658 51.404762 Z m 25.976054,-39.43068 c 8.944858,-4.64763 18.340329,-7.94414 26.940614,-9.45242 4.01387,-0.70393 14.50663,-0.70348 17.71159,7.9e-4 2.43167,0.53433 5.16035,1.37051 7.39208,2.26524 0.78291,0.31387 1.49366,0.50049 1.57945,0.41469 0.15893,-0.15896 -26.12791,-52.983203 -26.47822,-53.208856 -0.23493,-0.151326 -10.788232,20.885896 -10.788232,21.505536 0,0.24302 2.641285,3.96278 5.86952,8.26613 3.228232,4.30334 5.922422,8.10099 5.987072,8.4392 0.12731,0.66599 -1.07322,2.16997 -1.73214,2.16997 -0.19793,0 -3.72935,-1.66687 -7.847606,-3.70416 -4.118254,-2.0373 -7.655257,-3.70417 -7.860004,-3.70417 -0.227159,0 -3.130723,5.51805 -7.448723,14.15586 -6.497425,12.99756 -7.297049,14.68372 -6.963422,14.68372 0.06217,0 1.699277,-0.82419 3.638021,-1.83153 z"
           style="fill:#00a8d3;stroke-width:0.26458335" />
        <path
           inkscape:connector-curvature="0"
           id="path49"
           d="m 51.404762,193.9164 c 0,-0.59499 0.143618,-1.08514 0.340039,-1.16051 0.187021,-0.0718 8.060213,-15.57215 17.495983,-34.4453 9.435769,-18.87315 17.337358,-34.38442 17.559089,-34.46951 0.229661,-0.0881 2.948443,1.11646 6.318042,2.79928 5.602208,2.79781 6.7056,3.2477 6.7056,2.73408 0,-0.12094 -2.083594,-2.99855 -4.630209,-6.39469 -2.707105,-3.61017 -4.630208,-6.41539 -4.630208,-6.75407 0,-0.3186 2.917031,-6.41811 6.482292,-13.55445 3.56526,-7.13635 6.48229,-13.106347 6.48229,-13.266663 0,-0.160316 0.41672,-0.291484 0.92604,-0.291484 0.50933,0 0.92605,0.132672 0.92605,0.294826 0,0.162155 8.87015,18.042211 19.71145,39.733461 10.84131,21.69126 19.71146,39.59656 19.71146,39.78956 0,0.54215 -0.85614,0.43103 -5.40887,-0.70202 -2.32003,-0.5774 -4.27176,-0.9963 -4.33718,-0.93088 -0.30359,0.30359 0.99668,1.20233 6.67684,4.61502 3.36156,2.01965 6.36529,3.95049 6.67497,4.29075 0.30967,0.34027 2.14965,3.83335 4.08884,7.76241 1.9392,3.92907 3.79919,7.58787 4.13331,8.13068 0.33413,0.54282 0.60751,1.40602 0.60751,1.91823 v 0.9313 h -18.2056 -18.20561 l -0.44128,-5.35781 c -0.49519,-6.01233 -1.12295,-9.84675 -2.29296,-14.0055 -2.77919,-9.87857 -7.45159,-15.02624 -13.63893,-15.02624 -6.187328,0 -10.859735,5.14767 -13.638927,15.02624 -1.170006,4.15875 -1.797769,7.99317 -2.292958,14.0055 l -0.44128,5.35781 H 69.742658 51.404762 Z m 34.303054,-5.18769 c 0.951048,-10.75727 3.026931,-18.20282 6.634089,-23.79442 6.239508,-9.6721 17.984125,-9.6721 24.223635,0 3.60716,5.5916 5.68304,13.03715 6.63409,23.79442 l 0.30409,3.43959 14.88282,0.0684 c 11.82394,0.0543 14.88019,-8e-5 14.87005,-0.26459 -0.007,-0.18311 -1.58459,-3.4228 -3.50573,-7.19932 l -3.49297,-6.86638 -10.40977,-6.24168 c -5.72537,-3.43293 -10.52838,-6.45363 -10.67335,-6.71268 -0.34268,-0.61233 -0.0776,-1.62927 0.60188,-2.30871 0.6345,-0.6345 0.0928,-0.71863 8.01821,1.24533 3.18627,0.78958 5.85788,1.37094 5.9369,1.29191 0.1536,-0.15359 -35.04221,-70.77578 -35.27235,-70.77578 -0.23267,0 -10.721312,21.13705 -10.721312,21.60595 0,0.24302 2.641285,3.96278 5.86952,8.26613 3.228232,4.30334 5.922422,8.10099 5.987072,8.4392 0.12731,0.66599 -1.07322,2.16997 -1.73214,2.16997 -0.19793,0 -3.72935,-1.66687 -7.847606,-3.70416 -4.118254,-2.0373 -7.656461,-3.70417 -7.862679,-3.70417 -0.233466,0 -6.440372,12.15505 -16.449393,32.21302 -8.840946,17.71716 -16.072271,32.30331 -16.069612,32.41367 0.0027,0.11035 6.702102,0.16988 14.887649,0.13229 l 14.882813,-0.0684 z"
           style="fill:#088eb0;stroke-width:0.26458335" />
        <path
           inkscape:connector-curvature="0"
           id="path47"
           d="m 51.404762,193.9164 c 0,-0.59499 0.143618,-1.08514 0.340039,-1.16051 0.187021,-0.0718 8.060213,-15.57215 17.495983,-34.4453 9.435769,-18.87315 17.337358,-34.38442 17.559089,-34.46951 0.229661,-0.0881 2.948443,1.11646 6.318042,2.79928 5.602208,2.79781 6.7056,3.2477 6.7056,2.73408 0,-0.12094 -2.083594,-2.99855 -4.630209,-6.39469 -2.707105,-3.61017 -4.630208,-6.41539 -4.630208,-6.75407 0,-0.3186 2.917031,-6.41811 6.482292,-13.55445 3.56526,-7.13635 6.48229,-13.106347 6.48229,-13.266663 0,-0.160316 0.41672,-0.291484 0.92604,-0.291484 0.50933,0 0.92605,0.132672 0.92605,0.294826 0,0.162155 8.87015,18.042211 19.71145,39.733461 10.84131,21.69126 19.71146,39.59656 19.71146,39.78956 0,0.54215 -0.85614,0.43103 -5.40887,-0.70202 -2.32003,-0.5774 -4.27176,-0.9963 -4.33718,-0.93088 -0.30359,0.30359 0.99668,1.20233 6.67684,4.61502 3.36156,2.01965 6.36529,3.95049 6.67497,4.29075 0.30967,0.34027 2.14965,3.83335 4.08884,7.76241 1.9392,3.92907 3.79919,7.58787 4.13331,8.13068 0.33413,0.54282 0.60751,1.40602 0.60751,1.91823 v 0.9313 h -18.2056 -18.20561 l -0.44128,-5.35781 c -0.49519,-6.01233 -1.12295,-9.84675 -2.29296,-14.0055 -2.77919,-9.87857 -7.45159,-15.02624 -13.63893,-15.02624 -6.187328,0 -10.859735,5.14767 -13.638927,15.02624 -1.170006,4.15875 -1.797769,7.99317 -2.292958,14.0055 l -0.44128,5.35781 H 69.742658 51.404762 Z m 34.040079,-1.55386 c 0.172599,-0.10984 0.384646,-1.28889 0.487011,-2.70793 0.78749,-10.91672 3.329189,-19.89223 7.164163,-25.29884 5.964735,-8.40917 16.750685,-8.40917 22.715415,0 3.83498,5.40661 6.37668,14.38212 7.16417,25.29884 0.10236,1.41904 0.31441,2.59809 0.48701,2.70793 0.3698,0.23532 29.91359,0.27218 30.14816,0.0376 0.0908,-0.0908 -1.48821,-3.45428 -3.50884,-7.47448 l -3.67387,-7.30945 -10.40384,-6.22346 c -9.21264,-5.5109 -10.41327,-6.30461 -10.48629,-6.93223 -0.13144,-1.12984 0.3709,-1.79327 1.35786,-1.79327 0.47295,0 3.64896,0.70918 7.0578,1.57596 3.40884,0.86677 6.25358,1.52026 6.32164,1.4522 0.29077,-0.29078 -35.37321,-71.648746 -35.82151,-71.673139 -0.25429,-0.01384 -11.209829,21.404529 -11.225432,21.946019 -0.0042,0.14552 2.736842,3.94264 6.09119,8.43805 6.551092,8.7796 6.603152,8.88007 5.108302,9.85953 -0.67161,0.44006 -0.76373,0.4027 -8.471738,-3.43623 -4.286009,-2.13463 -7.913447,-3.88114 -8.060974,-3.88114 -0.311089,0 -32.761938,65.12087 -32.599034,65.41824 0.140669,0.25678 29.745167,0.25265 30.148807,-0.004 z"
           style="fill:#606060;stroke-width:0.26458335" />
        <path
           inkscape:connector-curvature="0"
           id="path45"
           d="m 51.404762,194.15267 c 0,-0.52928 0.132277,-0.79375 0.39701,-0.79375 0.262737,0 6.235652,-11.6777 17.660465,-34.52812 11.882991,-23.76682 17.392323,-34.52813 17.676933,-34.52813 0.227412,0 3.144655,1.36796 6.482765,3.0399 3.338108,1.67195 6.205379,3.04117 6.37171,3.04271 0.462855,0.004 0.601465,-0.62558 0.264325,-1.20115 -0.16619,-0.28371 -2.217411,-3.07568 -4.558267,-6.20438 -2.340856,-3.1287 -4.407551,-5.93118 -4.592656,-6.22773 -0.300316,-0.48113 0.364572,-1.94122 6.17433,-13.55884 3.580993,-7.160805 6.510893,-13.258248 6.510893,-13.549872 0,-0.389184 0.17594,-0.530225 0.66145,-0.530225 0.48522,0 0.66146,0.141087 0.66146,0.529522 0,0.291237 8.81381,18.156825 19.58625,39.701315 10.77244,21.54448 19.52765,39.26659 19.45604,39.38248 -0.0716,0.11588 -2.18817,-0.30635 -4.70344,-0.93829 -4.96602,-1.24767 -5.37179,-1.30783 -5.66136,-0.8393 -0.27844,0.45052 0.59252,1.05123 7.43814,5.13017 3.34698,1.99429 6.30757,3.81788 6.5791,4.05244 0.27152,0.23455 2.38524,4.20669 4.69715,8.82698 2.31192,4.62029 4.32218,8.40052 4.46726,8.40052 0.14508,0 0.26378,0.35719 0.26378,0.79375 v 0.79375 h -18.12396 -18.12396 v -2.26441 c 0,-5.64961 -1.43035,-14.32529 -3.22545,-19.56371 -2.95642,-8.62738 -7.37872,-12.91967 -13.31101,-12.91967 -5.932278,0 -10.354587,4.29229 -13.311007,12.91967 -1.795098,5.23842 -3.225449,13.9141 -3.225449,19.56371 v 2.26441 H 69.661013 51.404762 Z m 34.040079,-1.79013 c 0.172599,-0.10984 0.384646,-1.28889 0.487011,-2.70793 0.78749,-10.91672 3.329189,-19.89223 7.164163,-25.29884 5.964735,-8.40917 16.750685,-8.40917 22.715415,0 3.83498,5.40661 6.37668,14.38212 7.16417,25.29884 0.10236,1.41904 0.31441,2.59809 0.48701,2.70793 0.3698,0.23532 29.91359,0.27218 30.14816,0.0376 0.0908,-0.0908 -1.48821,-3.45428 -3.50884,-7.47448 l -3.67387,-7.30945 -10.40384,-6.22346 c -9.21264,-5.5109 -10.41327,-6.30461 -10.48629,-6.93223 -0.13144,-1.12984 0.3709,-1.79327 1.35786,-1.79327 0.47295,0 3.64896,0.70918 7.0578,1.57596 3.40884,0.86677 6.25358,1.52026 6.32164,1.4522 0.29077,-0.29078 -35.37321,-71.648746 -35.82151,-71.673139 -0.25429,-0.01384 -11.209829,21.404529 -11.225432,21.946019 -0.0042,0.14552 2.736842,3.94264 6.09119,8.43805 6.551092,8.7796 6.603152,8.88007 5.108302,9.85953 -0.67161,0.44006 -0.76373,0.4027 -8.471738,-3.43623 -4.286009,-2.13463 -7.913447,-3.88114 -8.060974,-3.88114 -0.311089,0 -32.761938,65.12087 -32.599034,65.41824 0.140669,0.25678 29.745167,0.25265 30.148807,-0.004 z"
           style="fill:#04728e;stroke-width:0.26458335" />
        <path
           inkscape:connector-curvature="0"
           id="path43"
           d="m 51.404762,194.15267 c 0,-0.52928 0.132277,-0.79375 0.39701,-0.79375 0.262737,0 6.235652,-11.6777 17.660465,-34.52812 11.882991,-23.76682 17.392323,-34.52813 17.676933,-34.52813 0.227412,0 3.144655,1.36796 6.482765,3.0399 3.338108,1.67195 6.205379,3.04117 6.37171,3.04271 0.462855,0.004 0.601465,-0.62558 0.264325,-1.20115 -0.16619,-0.28371 -2.217411,-3.07568 -4.558267,-6.20438 -2.340856,-3.1287 -4.407551,-5.93118 -4.592656,-6.22773 -0.300316,-0.48113 0.364572,-1.94122 6.17433,-13.55884 3.580993,-7.160805 6.510893,-13.258248 6.510893,-13.549872 0,-0.389184 0.17594,-0.530225 0.66145,-0.530225 0.48522,0 0.66146,0.141087 0.66146,0.529522 0,0.291237 8.81381,18.156825 19.58625,39.701315 10.77244,21.54448 19.52765,39.26659 19.45604,39.38248 -0.0716,0.11588 -2.18817,-0.30635 -4.70344,-0.93829 -4.96602,-1.24767 -5.37179,-1.30783 -5.66136,-0.8393 -0.27844,0.45052 0.59252,1.05123 7.43814,5.13017 3.34698,1.99429 6.30757,3.81788 6.5791,4.05244 0.27152,0.23455 2.38524,4.20669 4.69715,8.82698 2.31192,4.62029 4.32218,8.40052 4.46726,8.40052 0.14508,0 0.26378,0.35719 0.26378,0.79375 v 0.79375 h -18.12396 -18.12396 v -2.26441 c 0,-5.64961 -1.43035,-14.32529 -3.22545,-19.56371 -2.95642,-8.62738 -7.37872,-12.91967 -13.31101,-12.91967 -5.932278,0 -10.354587,4.29229 -13.311007,12.91967 -1.795098,5.23842 -3.225449,13.9141 -3.225449,19.56371 v 2.26441 H 69.661013 51.404762 Z m 34.328877,-1.65364 c 0.144328,-0.1819 0.341837,-1.40229 0.438907,-2.71198 1.394415,-18.81373 7.282413,-30.03843 16.437304,-31.33554 4.90821,-0.69542 9.35622,1.28334 12.65689,5.63061 3.99862,5.26652 6.62276,14.29867 7.46816,25.70493 0.0971,1.30969 0.29458,2.53008 0.43891,2.71198 0.38412,0.48411 30.16956,0.48228 30.57138,-0.002 0.20207,-0.24348 -0.69574,-2.28189 -3.35035,-7.60677 l -3.62639,-7.27419 -10.44174,-6.28518 c -10.17525,-6.12477 -10.44173,-6.30627 -10.44173,-7.11148 0,-1.68293 0.36617,-1.67484 7.67104,0.16949 3.63699,0.91827 6.70285,1.61387 6.81302,1.54578 0.11017,-0.0681 0.20031,-0.24018 0.20031,-0.38244 0,-0.14225 -8.02771,-16.38726 -17.83936,-36.10001 C 110.35392,104.58739 104.76315,93.611 104.47437,93.611 c -0.28366,0 -2.13293,3.434698 -5.80501,10.78177 -2.963812,5.92998 -5.464649,11.02514 -5.557417,11.3226 -0.131818,0.42267 1.160941,2.31624 5.917288,8.66739 3.347269,4.4696 6.085949,8.28337 6.085949,8.47503 0,0.19166 -0.30017,0.63047 -0.66705,0.97513 l -0.66705,0.62667 -7.893412,-3.92725 c -4.824727,-2.40046 -8.022254,-3.84761 -8.224832,-3.72241 -0.182282,0.11266 -7.623861,14.86438 -16.53684,32.7816 -11.48241,23.08239 -16.129974,32.67316 -15.946554,32.9075 0.20167,0.25765 3.576605,0.33073 15.275321,0.33073 11.69682,0 15.07447,-0.0731 15.278876,-0.33073 z"
           style="fill:#045266;stroke-width:0.26458335" />
        <path
           inkscape:connector-curvature="0"
           id="path41"
           d="m 51.404762,194.15267 c 0,-0.52928 0.132277,-0.79375 0.39701,-0.79375 0.262737,0 6.235652,-11.6777 17.660465,-34.52812 11.882991,-23.76682 17.392323,-34.52813 17.676933,-34.52813 0.227412,0 3.144655,1.36796 6.482765,3.0399 3.338108,1.67195 6.205379,3.04117 6.37171,3.04271 0.462855,0.004 0.601465,-0.62558 0.264325,-1.20115 -0.16619,-0.28371 -2.217411,-3.07568 -4.558267,-6.20438 -2.340856,-3.1287 -4.407551,-5.93118 -4.592656,-6.22773 -0.300316,-0.48113 0.364572,-1.94122 6.17433,-13.55884 3.580993,-7.160805 6.510893,-13.258248 6.510893,-13.549872 0,-0.389184 0.17594,-0.530225 0.66145,-0.530225 0.48522,0 0.66146,0.141087 0.66146,0.529522 0,0.291237 8.81381,18.156825 19.58625,39.701315 10.77244,21.54448 19.52765,39.26659 19.45604,39.38248 -0.0716,0.11588 -2.18817,-0.30635 -4.70344,-0.93829 -4.96602,-1.24767 -5.37179,-1.30783 -5.66136,-0.8393 -0.27844,0.45052 0.59252,1.05123 7.43814,5.13017 3.34698,1.99429 6.30757,3.81788 6.5791,4.05244 0.27152,0.23455 2.38524,4.20669 4.69715,8.82698 2.31192,4.62029 4.32218,8.40052 4.46726,8.40052 0.14508,0 0.26378,0.35719 0.26378,0.79375 v 0.79375 h -18.12396 -18.12396 v -2.26441 c 0,-5.64961 -1.43035,-14.32529 -3.22545,-19.56371 -2.95642,-8.62738 -7.37872,-12.91967 -13.31101,-12.91967 -5.932278,0 -10.354587,4.29229 -13.311007,12.91967 -1.795098,5.23842 -3.225449,13.9141 -3.225449,19.56371 v 2.26441 H 69.661013 51.404762 Z m 34.782715,-1.52135 c 0.0984,-0.25466 0.285154,-1.71318 0.415009,-3.24115 0.841285,-9.89918 2.689887,-17.31372 5.610813,-22.50432 3.015393,-5.35848 7.244662,-8.18735 12.240421,-8.18735 9.96968,0 16.14525,10.61766 17.85124,30.69167 0.12986,1.52797 0.31697,2.98743 0.41581,3.24324 0.16907,0.43756 1.10624,0.46106 15.82357,0.39687 14.81378,-0.0646 15.64871,-0.0935 15.73539,-0.54367 0.0504,-0.26148 -1.54451,-3.75887 -3.54411,-7.77197 l -3.63565,-7.29653 -1.49133,-0.95928 c -0.82023,-0.52761 -5.50306,-3.34053 -10.40628,-6.25095 -5.27041,-3.12837 -8.98129,-5.49302 -9.07721,-5.78419 -0.0942,-0.28592 0.0121,-0.66688 0.25337,-0.90817 0.3778,-0.3778 1.02662,-0.26258 7.1265,1.2655 3.69097,0.92462 6.90945,1.60492 7.15218,1.51178 0.24272,-0.0932 0.42846,-0.38145 0.41273,-0.64068 -0.0157,-0.25923 -8.14173,-16.66382 -18.05781,-36.45466 -14.9297,-29.797203 -18.1202,-35.983335 -18.5584,-35.983335 -0.43173,0 -1.56186,2.046015 -6.138042,11.112505 -3.084883,6.11187 -5.612932,11.35062 -5.617885,11.64166 -0.0049,0.29104 2.672446,4.09953 5.949781,8.4633 3.784076,5.0385 5.930936,8.11863 5.882476,8.43965 -0.042,0.27803 -0.28377,0.63555 -0.53732,0.79448 -0.37626,0.23586 -1.86012,-0.40927 -8.073621,-3.51011 -4.344573,-2.16815 -7.83816,-3.7572 -8.13797,-3.70153 -0.405114,0.0752 -4.263004,7.57519 -16.858335,32.77359 -8.983151,17.97182 -16.335261,32.86456 -16.338022,33.09497 -0.0028,0.23041 0.07436,0.4983 0.171369,0.59531 0.09701,0.097 7.168495,0.17639 15.714402,0.17639 14.553564,0 15.549347,-0.0293 15.716924,-0.46302 z"
           style="fill:#091315;stroke-width:0.26458335" />
      </g>
    </g>
    <g
       id="g21"
       transform="translate(-154.21429,-58.964286)" />
  </g>
</svg>
